<svg width="104" height="104" viewBox="0 0 104 104" fill="none" xmlns="http://www.w3.org/2000/svg">
<g id="Group 4">
<g id="Group 3">
<circle id="Ellipse 4" cx="52" cy="52" r="51.75" stroke="url(#paint0_linear_201_284)" stroke-width="0.5"/>
</g>
<g id="Group 1">
<path id="Vector" d="M80.4634 53.2935L68.5844 65.8498C68.1557 66.2962 67.5265 66.5561 66.8611 66.5561C66.3433 66.5537 65.8422 66.3967 65.4358 66.1122C64.4976 65.4133 64.364 64.1798 65.1407 63.3386L75.7696 52.0379L65.0794 40.7372C64.261 39.8985 64.3667 38.6354 65.3188 37.912C66.2681 37.1886 67.7047 37.2842 68.5259 38.1205L80.4048 50.6768H80.4021C81.1759 51.4101 81.2011 52.5357 80.4634 53.2935ZM38.5934 37.9635C37.6386 37.2818 36.2382 37.397 35.4448 38.2259L23.5658 50.7822C22.8114 51.5278 22.8114 52.6534 23.5658 53.399L35.4448 65.9553C35.8735 66.4016 36.5027 66.6591 37.168 66.6616C37.6858 66.6567 38.187 66.4997 38.5934 66.2152C39.5316 65.5163 39.6652 64.2852 38.8885 63.444L28.2596 52.0378L38.9498 40.7372C39.7098 39.8812 39.5511 38.6478 38.5934 37.9635ZM57.1231 37.0757C55.9455 36.7839 54.715 37.3602 54.3308 38.3828L45.4223 64.5427C45.0743 65.58 45.7341 66.6738 46.9061 67H47.5603C48.5375 66.9951 49.4032 66.4359 49.6984 65.6144L58.6069 39.4546C58.8992 38.4417 58.2505 37.3995 57.1231 37.0757Z" fill="url(#paint1_linear_201_284)"/>
</g>
</g>
<defs>
<linearGradient id="paint0_linear_201_284" x1="10.5238" y1="33.28" x2="60.9702" y2="33.6713" gradientUnits="userSpaceOnUse">
<stop stop-color="#B347F4"/>
<stop offset="1" stop-color="#47E3B4"/>
</linearGradient>
<linearGradient id="paint1_linear_201_284" x1="28.869" y1="46.6" x2="56.998" y2="47.0218" gradientUnits="userSpaceOnUse">
<stop stop-color="#B347F4"/>
<stop offset="1" stop-color="#47E3B4"/>
</linearGradient>
</defs>
</svg>
